<?xml version="1.0" standalone="no"?>
<!DOCTYPE svg PUBLIC "-//W3C//DTD SVG 20010904//EN"
 "http://www.w3.org/TR/2001/REC-SVG-20010904/DTD/svg10.dtd">
<svg version="1.0" xmlns="http://www.w3.org/2000/svg"
 width="700.000000pt" height="700.000000pt" viewBox="0 0 700.000000 700.000000"
 preserveAspectRatio="xMidYMid meet">
<metadata>
Created by potrace 1.11, written by Peter Selinger 2001-2013
</metadata>
<g transform="translate(0.000000,700.000000) scale(0.100000,-0.100000)"
fill="#000000" stroke="none">
<path d="M2100 5823 c-332 -27 -641 -230 -852 -559 -106 -165 -200 -431 -224
-629 -2 -22 -6 -53 -9 -70 -6 -43 -7 -314 0 -350 7 -41 14 -83 20 -130 9 -58
62 -243 91 -317 39 -98 108 -229 158 -296 53 -74 164 -199 216 -244 28 -24 50
-47 50 -51 0 -29 -276 -473 -324 -523 -6 -6 -22 -26 -36 -44 -84 -112 -164
-202 -355 -399 -187 -193 -179 -185 -206 -223 -13 -18 -26 -35 -29 -38 -4 -3
-17 -27 -31 -55 -20 -41 -24 -65 -24 -135 0 -107 22 -168 120 -330 50 -82 116
-123 256 -159 151 -39 233 -46 504 -46 239 0 356 7 525 31 25 3 61 8 80 10
102 13 386 71 535 110 94 24 179 46 191 49 72 17 415 142 522 191 29 13 55 24
57 24 5 0 243 117 265 131 8 5 60 34 115 65 330 187 628 444 853 733 l19 25
39 -31 c106 -83 295 -174 392 -189 20 -3 55 -10 76 -16 39 -10 269 -13 284 -4
4 2 25 7 46 10 139 22 269 81 446 203 35 23 178 168 222 224 46 57 135 205
170 280 68 147 120 336 143 529 8 60 8 322 1 356 -2 12 -7 45 -11 75 -37 296
-187 618 -390 834 -137 147 -375 286 -545 319 -14 3 -36 8 -50 11 -14 4 -80 8
-147 9 -171 4 -311 -27 -462 -104 -59 -29 -138 -77 -151 -90 -3 -3 -22 -18
-42 -33 -85 -63 -288 -294 -288 -328 0 -17 -15 -9 -86 44 -235 177 -592 287
-939 290 -53 0 -61 2 -62 20 -2 26 -94 212 -135 274 -251 378 -615 577 -998
546z m541 -1585 c61 -20 108 -61 135 -116 75 -149 -15 -312 -182 -329 -70 -7
-130 15 -181 67 -45 48 -61 87 -62 158 -2 151 151 268 290 220z m767 -198 c47
-25 87 -73 107 -131 31 -86 12 -163 -56 -231 -148 -149 -397 -36 -384 175 4
63 21 102 67 147 68 69 179 85 266 40z"/>
</g>
</svg>
