<?xml version="1.0" encoding="UTF-8" standalone="no"?>
<svg width="260px" height="260px" viewBox="0 0 260 260" version="1.1" xmlns="http://www.w3.org/2000/svg" xmlns:xlink="http://www.w3.org/1999/xlink">
    <!-- Generator: Sketch 40.1 (33804) - http://www.bohemiancoding.com/sketch -->
    <title>realfavicongenerator-headonly</title>
    <desc>Created with Sketch.</desc>
    <defs></defs>
    <g id="Page-1" stroke="none" stroke-width="1" fill="none" fill-rule="evenodd">
        <g id="realfavicongenerator-headonly">
            <g id="Group" transform="translate(20.000000, 43.000000)">
                <path d="M218.262181,76.6968413 C218.262181,106.073729 198.809564,129.890236 174.800724,129.890236 C150.805526,129.890236 131.352909,106.073729 131.352909,76.6968413 C131.352909,47.3199535 150.805526,23.5034463 174.800724,23.5034463 C198.809564,23.5034463 218.262181,47.3199535 218.262181,76.6968413" id="Fill-2" fill="#DE97B1"></path>
                <path d="M37.8064809,98.8806645 C25.5413703,89.4779069 17.3845827,72.7865784 17.3845827,53.763695 C17.3845827,24.3868073 36.8371996,0.570300085 60.8323981,0.570300085 C78.4650514,0.570300085 93.6401796,13.416393 100.456851,31.8767502 C79.6562132,32.313596 59.0878076,42.2275635 52.6598435,62.5206098 L52.6462021,62.5206098 C47.939584,77.3890362 42.8721919,89.259746 37.8064809,98.8806645 Z" id="Combined-Shape" fill="#DE97B1"></path>
                <path d="M52.6598435,62.5206098 C63.2319179,29.1446305 112.054439,23.8444647 137.25008,42.6073254 C162.44572,61.3564907 169.061793,96.3622367 149.063521,122.383722 C110.226494,172.8791 14.6276585,179.72686 5.2014606,164.853526 C-14.278439,134.079695 25.2815812,148.966724 52.6462021,62.5206098 L52.6598435,62.5206098 Z M103.840961,82.9063895 C99.1892481,83.6048609 94.8512872,80.3727185 94.1555765,75.7025466 C93.4735072,71.0323747 96.679233,66.6771997 101.330946,65.9787283 C105.9963,65.2939523 110.320619,68.5123992 111.01633,73.1825711 C111.712041,77.8664386 108.492674,82.207918 103.840961,82.9063895 Z M76.9210491,76.2038026 C72.2693363,76.902274 67.9313755,73.6701316 67.2356648,68.9999597 C66.5535955,64.3297878 69.7593213,59.9746128 74.411034,59.2761414 C79.0763881,58.5913654 83.4007076,61.8098123 84.0964183,66.4799842 C84.792129,71.1638517 81.5727618,75.5053311 76.9210491,76.2038026 Z" id="Combined-Shape" fill="#EFCBD8"></path>
            </g>
        </g>
    </g>
</svg>