<?xml version="1.0" encoding="iso-8859-1"?>
<!-- Generator: Adobe Illustrator 20.1.0, SVG Export Plug-In . SVG Version: 6.00 Build 0)  -->
<svg version="1.1" id="Layer_1" xmlns="http://www.w3.org/2000/svg" xmlns:xlink="http://www.w3.org/1999/xlink" x="0px" y="0px"
	 viewBox="0 0 150 150" style="enable-background:new 0 0 150 150;" xml:space="preserve">
<g>
	<path style="fill:#5E75B3;" d="M130.141,20.731c-13.389-4.913-27.224-0.901-30.901,8.959s4.196,21.836,17.585,26.749
		s27.224,0.901,30.901-8.959S143.531,25.644,130.141,20.731z"/>
	<path style="fill:#629245;" d="M130.141,20.731c-13.389-4.913-27.224-0.901-30.901,8.959s4.196,21.836,17.585,26.749
		s27.224,0.901,30.901-8.959S143.531,25.644,130.141,20.731z"/>
	<path style="fill:#55803D;" d="M127.478,27.873c-8.034-2.948-16.335-0.541-18.541,5.375s2.518,13.102,10.551,16.049
		c8.034,2.948,16.335,0.541,18.541-5.375S135.512,30.82,127.478,27.873z"/>
	<path style="fill:#55803D;" d="M126.972,94.288l-33.868-51.34C90.448,30.125,76.877,23.27,67,16.87
		c-5.985-3.878-12.511-6.604-18.126-2.209c-1.349,1.056-2.429,2.329-3.233,3.728c-2.524,4.39-2.316,10.042,0.949,14.297
		c0.026,0.034,7.789,7.185,14.326,10.74c0.099,0.054,0.201,0.108,0.3,0.163c-4.732,0.054-9.833,0.269-15.334,0.635
		C32.553,45.111,3.021,31.592,0.441,43.651C-3.697,62.992,22.74,59.592,20.468,72.756C18.485,84.246,1.19,86.14,3.138,96.197
		c2.374,12.26,40.065,22.54,54.85,23.483c13.044,0.832,24.198-0.181,34.084-3.644c-2.368,2.829-4.168,5.002-4.235,5.239
		c-0.011,0.041-0.02,0.081-0.031,0.122c-1.411,5.175,0.536,10.485,4.535,13.592c1.274,0.991,2.755,1.76,4.403,2.226
		c6.861,1.942,17.786-3.887,21.857-9.742C125.32,117.809,129.368,107.162,126.972,94.288z"/>
	<path style="fill:#5E75B3;" d="M120.545,72.764c-15.722,1.157-28.033,10.145-27.497,20.074s13.716,17.041,29.438,15.884
		s28.033-10.145,27.497-20.074S136.267,71.607,120.545,72.764z"/>
	<path style="fill:#629245;" d="M120.545,72.764c-15.722,1.157-28.033,10.145-27.497,20.074s13.716,17.041,29.438,15.884
		s28.033-10.145,27.497-20.074S136.267,71.607,120.545,72.764z"/>
	<path style="fill:#55803D;" d="M120.732,79.688c-9.68,0.712-17.259,6.246-16.929,12.359s8.444,10.492,18.124,9.779
		c9.68-0.712,17.259-6.246,16.929-12.359C138.526,83.353,130.411,78.975,120.732,79.688z"/>
	<path style="fill:#6EA44D;" d="M127.768,39.932c-39.986-9.396-34.651-27.848-47.862-17.945c-6.388,4.789,0.045,47.887,24.206,63.73
		c12.446,8.161,28.017,3.948,35.604-8.128C147.303,65.513,143.206,43.56,127.768,39.932z"/>
	<g>
		
			<ellipse transform="matrix(0.8809 -0.4732 0.4732 0.8809 -13.5516 65.5399)" style="fill:#496F34;" cx="123.477" cy="59.702" rx="3.874" ry="3.874"/>
		
			<ellipse transform="matrix(0.8809 -0.4732 0.4732 0.8809 -12.7795 65.9031)" style="fill:#C8E1B9;" cx="124.584" cy="58.349" rx="1.291" ry="1.291"/>
	</g>
	<g>
		
			<ellipse transform="matrix(0.8809 -0.4732 0.4732 0.8809 -7.6239 65.4981)" style="fill:#496F34;" cx="126.357" cy="47.901" rx="3.874" ry="3.874"/>
		
			<ellipse transform="matrix(0.8809 -0.4732 0.4732 0.8809 -6.6271 65.6564)" style="fill:#C8E1B9;" cx="127.17" cy="45.999" rx="1.291" ry="1.291"/>
	</g>
</g>
</svg>
